<svg xmlns:xlink="http://www.w3.org/1999/xlink" xmlns="http://www.w3.org/2000/svg" class="css-ze2te4 css-qd6ojx" viewBox="0 0 68.00238674790113 36.71641791044776" width="300"  height="161.98" ><g transform="translate(0, -0.021491662779850748) scale(0.7164179104477613)" stroke="#FFFFFF" fill="#FFFFFF">    <title xmlns="http://www.w3.org/2000/svg" stroke="#FFFFFF" fill="#FFFFFF">Asset 78LETTERS3</title>    <g xmlns="http://www.w3.org/2000/svg" id="Page-1" stroke-width="1" fill-rule="evenodd" stroke="#FFFFFF" fill="#FFFFFF">        <g id="Artboard" transform="translate(-4444.000000, -160.000000)" fill-rule="nonzero" stroke="#FFFFFF" fill="#FFFFFF">            <g id="Asset-78LETTERS3" transform="translate(4444.000000, 160.030000)" stroke="#FFFFFF" fill="#FFFFFF">                <path d="M59.84,0 L40.66,0 C40.66,0 33.91,18.11 0,44.74 C0,44.74 27.7,37.1 59.84,0 Z" id="Path" stroke="none" fill="#FFFFFF"></path>                <path d="M91.62,0 L65.16,0 C26.99,42.44 1.6,48.12 1.6,48.12 C58.42,41.02 91.62,0 91.62,0 Z" id="Path" stroke="none" fill="#FFFFFF"></path>                <path d="M48.12,36.93 C48.12,36.93 44.04,39.24 35.69,42.35 L40.66,50.25 L61.26,50.25 C61.26,50.25 53.09,41.37 48.12,36.93 Z" id="Path" stroke="none" fill="#FFFFFF"></path>                <path d="M66.85,26.1 C66.85,26.1 60.28,31.16 52.73,34.8 C52.73,34.8 65.87,47.58 67.29,50.25 L93.92,50.25 C93.92,50.25 82.02,36.31 66.84,26.1 L66.85,26.1 Z" id="Path" stroke="none" fill="#FFFFFF"></path>            </g>        </g>    </g></g></svg>