<svg version="1.2" xmlns="http://www.w3.org/2000/svg" viewBox="0 0 800 150" width="800" height="150"><style>.a{fill:#fff}</style><path class="a" d=""/><path class="a" d="m126.5 24.8h-38c0 0-13.4 35.9-80.7 88.7 0 0 55-15.1 118.7-88.7z"/><path class="a" d="m189.5 24.8h-52.4c-75.7 84.1-126.1 95.4-126.1 95.4 112.7-14.1 178.5-95.4 178.5-95.4z"/><path class="a" d="m103.3 98c0 0-8.1 4.6-24.7 10.8l9.9 15.6h40.8c0 0-16.2-17.6-26-26.4z"/><path class="a" d="m140.4 76.5c0 0-13 10.1-28 17.3 0 0 26.1 25.3 28.9 30.6h52.8c0 0-23.6-27.6-53.7-47.9z"/><path class="a" d="m284.7 124.4l-7.3-20.5h-41.8l-7.3 20.5h-21.2l36.7-99.6h25.3l36.7 99.6zm-43-37.8h29.7l-14.8-42.3zm131.8 37.9l-25.9-43.9h-6v43.9h-20.7v-99.7h36.1c22.6 0 32.1 13.3 32.1 29.8 0 13.4-7.6 22.1-21.1 25l30 44.9zm-32-82.5v23.8h12.2c11.1 0 15.6-4.7 15.6-11.9 0-7.1-4.5-11.9-15.6-11.9zm129.4-17.2v18.2h-23.6v81.5h-20.5v-81.5h-23.8v-18.2zm73.4 18.2h-36.9v22.6h32.7v18h-32.7v22.6h36.9v18.3h-57.7v-99.7h57.7zm74 81.4l-26-43.8h-6v43.8h-20.6v-99.6h36.1c22.5 0 32.1 13.3 32.1 29.8 0 13.4-7.6 22.1-21.1 25l30 44.8zm-32-82.4v23.8h12.2c11.1 0 15.6-4.7 15.6-11.9 0-7.1-4.5-11.9-15.6-11.9zm71.6 82.4v-99.6h20.7v99.6zm113.1 0l-7.2-20.5h-41.9l-7.2 20.5h-21.2l36.7-99.6h25.3l36.7 99.6zm-43.1-37.8h29.8l-14.9-42.3z"/></svg>